<svg width="19" height="19" viewBox="0 0 19 19" fill="none" xmlns="http://www.w3.org/2000/svg">
<path d="M9.49746 4.88213C6.94203 4.88213 4.87967 6.94452 4.87967 9.5C4.87967 12.0555 6.94203 14.1179 9.49746 14.1179C12.0529 14.1179 14.1152 12.0555 14.1152 9.5C14.1152 6.94452 12.0529 4.88213 9.49746 4.88213ZM9.49746 12.5013C7.84487 12.5013 6.49624 11.1526 6.49624 9.5C6.49624 7.84738 7.84487 6.49872 9.49746 6.49872C11.15 6.49872 12.4987 7.84738 12.4987 9.5C12.4987 11.1526 11.15 12.5013 9.49746 12.5013ZM14.3044 3.61678C13.7077 3.61678 13.2259 4.0986 13.2259 4.69525C13.2259 5.29191 13.7077 5.77373 14.3044 5.77373C14.901 5.77373 15.3828 5.29416 15.3828 4.69525C15.383 4.55358 15.3552 4.41325 15.3011 4.28233C15.247 4.1514 15.1675 4.03244 15.0673 3.93226C14.9672 3.83208 14.8482 3.75264 14.7173 3.69851C14.5864 3.64437 14.446 3.6166 14.3044 3.61678ZM18.4989 9.5C18.4989 8.25716 18.5101 7.02558 18.4403 5.78499C18.3705 4.34402 18.0418 3.06515 16.9881 2.01144C15.9322 0.955477 14.6556 0.629006 13.2147 0.559209C11.9718 0.489412 10.7403 0.50067 9.49971 0.50067C8.25689 0.50067 7.02533 0.489412 5.78477 0.559209C4.34382 0.629006 3.06498 0.957728 2.01129 2.01144C0.955346 3.0674 0.628882 4.34402 0.559086 5.78499C0.48929 7.02783 0.500548 8.25941 0.500548 9.5C0.500548 10.7406 0.48929 11.9744 0.559086 13.215C0.628882 14.656 0.957598 15.9348 2.01129 16.9886C3.06723 18.0445 4.34382 18.371 5.78477 18.4408C7.02759 18.5106 8.25914 18.4993 9.49971 18.4993C10.7425 18.4993 11.9741 18.5106 13.2147 18.4408C14.6556 18.371 15.9344 18.0423 16.9881 16.9886C18.0441 15.9326 18.3705 14.656 18.4403 13.215C18.5124 11.9744 18.4989 10.7428 18.4989 9.5ZM16.5176 14.8091C16.3532 15.2189 16.1551 15.5251 15.8376 15.8403C15.5202 16.1577 15.2162 16.3559 14.8064 16.5202C13.6222 16.9908 10.8101 16.885 9.49746 16.885C8.18485 16.885 5.3705 16.9908 4.18622 16.5225C3.77645 16.3581 3.47025 16.16 3.15504 15.8425C2.83758 15.5251 2.63945 15.2211 2.4751 14.8113C2.00679 13.6248 2.11261 10.8126 2.11261 9.5C2.11261 8.18736 2.00679 5.37296 2.4751 4.18866C2.63945 3.77888 2.83758 3.47268 3.15504 3.15746C3.4725 2.84225 3.77645 2.64187 4.18622 2.47751C5.3705 2.00919 8.18485 2.11501 9.49746 2.11501C10.8101 2.11501 13.6244 2.00919 14.8087 2.47751C15.2185 2.64187 15.5247 2.84 15.8399 3.15746C16.1573 3.47493 16.3555 3.77888 16.5198 4.18866C16.9881 5.37296 16.8823 8.18736 16.8823 9.5C16.8823 10.8126 16.9881 13.6248 16.5176 14.8091Z" fill="white"/>
</svg>
