<svg width="36" height="37" viewBox="0 0 36 37" fill="none" xmlns="http://www.w3.org/2000/svg">
<path d="M18 7.47C16.8667 7.47 15.7589 7.80606 14.8166 8.43568C13.8743 9.0653 13.1399 9.96021 12.7062 11.0072C12.2725 12.0542 12.159 13.2064 12.3801 14.3179C12.6012 15.4294 13.1469 16.4504 13.9483 17.2517C14.7496 18.0531 15.7706 18.5988 16.8821 18.8199C17.9936 19.041 19.1457 18.9275 20.1928 18.4938C21.2398 18.0601 22.1347 17.3257 22.7643 16.3834C23.3939 15.4411 23.73 14.3333 23.73 13.2C23.73 11.6803 23.1263 10.2229 22.0517 9.14828C20.9771 8.0737 19.5197 7.47 18 7.47ZM18 16.93C17.2623 16.93 16.5411 16.7112 15.9277 16.3014C15.3143 15.8915 14.8362 15.309 14.5539 14.6274C14.2716 13.9458 14.1977 13.1959 14.3417 12.4723C14.4856 11.7488 14.8408 11.0841 15.3625 10.5625C15.8841 10.0408 16.5488 9.6856 17.2723 9.54167C17.9959 9.39775 18.7458 9.47162 19.4274 9.75393C20.109 10.0362 20.6915 10.5143 21.1014 11.1277C21.5112 11.7411 21.73 12.4623 21.73 13.2C21.7273 14.1875 21.3332 15.1337 20.634 15.831C19.9347 16.5284 18.9875 16.92 18 16.92V16.93Z" fill="#C5C5C5"/>
<path d="M18 2.75C14.8852 2.7526 11.898 3.98769 9.69081 6.1855C7.48363 8.3833 6.23585 11.3652 6.22 14.48C6.22 19.15 8.84 23.06 10.76 25.91L11.11 26.43C13.0203 29.1986 15.0696 31.8687 17.25 34.43L18.01 35.32L18.77 34.43C20.9502 31.8685 22.9994 29.1984 24.91 26.43L25.26 25.9C27.17 23.05 29.79 19.15 29.79 14.48C29.7741 11.3635 28.525 8.38006 26.3156 6.18197C24.1063 3.98388 21.1165 2.74996 18 2.75ZM23.59 24.75L23.23 25.28C21.51 27.86 19.23 30.75 18 32.18C16.82 30.75 14.49 27.86 12.77 25.28L12.42 24.75C10.65 22.11 8.22 18.5 8.22 14.44C8.22 13.1557 8.47297 11.8839 8.96446 10.6974C9.45595 9.51079 10.1763 8.43265 11.0845 7.5245C11.9927 6.61634 13.0708 5.89595 14.2574 5.40446C15.4439 4.91297 16.7157 4.66 18 4.66C19.2843 4.66 20.5561 4.91297 21.7426 5.40446C22.9292 5.89595 24.0073 6.61634 24.9155 7.5245C25.8237 8.43265 26.5441 9.51079 27.0355 10.6974C27.527 11.8839 27.78 13.1557 27.78 14.44C27.78 18.54 25.36 22.15 23.59 24.75Z" fill="#C5C5C5"/>
</svg>
