<svg width="30" height="28" viewBox="0 0 30 28" fill="none" xmlns="http://www.w3.org/2000/svg">
<path fill-rule="evenodd" clip-rule="evenodd" d="M14.72 26.25C18.0849 26.25 21.312 24.9594 23.6914 22.6621C26.0708 20.3647 27.4075 17.2489 27.4075 14C27.4075 10.7511 26.0708 7.63526 23.6914 5.33794C21.312 3.04062 18.0849 1.75 14.72 1.75C11.3551 1.75 8.12795 3.04062 5.74858 5.33794C3.36922 7.63526 2.0325 10.7511 2.0325 14C2.0325 17.2489 3.36922 20.3647 5.74858 22.6621C8.12795 24.9594 11.3551 26.25 14.72 26.25ZM29.22 14C29.22 17.713 27.6923 21.274 24.9731 23.8995C22.2538 26.525 18.5656 28 14.72 28C10.8744 28 7.18623 26.525 4.46695 23.8995C1.74768 21.274 0.220001 17.713 0.220001 14C0.220001 10.287 1.74768 6.72601 4.46695 4.10051C7.18623 1.475 10.8744 0 14.72 0C18.5656 0 22.2538 1.475 24.9731 4.10051C27.6923 6.72601 29.22 10.287 29.22 14Z" fill="#CCCCCC"/>
<path fill-rule="evenodd" clip-rule="evenodd" d="M13.8138 5.25C14.0541 5.25 14.2846 5.34219 14.4546 5.50628C14.6245 5.67038 14.72 5.89294 14.72 6.125V15.2425L20.607 18.4905C20.8096 18.6085 20.9564 18.7984 21.016 19.0195C21.0755 19.2406 21.0431 19.4755 20.9257 19.6738C20.8083 19.8722 20.6152 20.0184 20.3877 20.0811C20.1601 20.1438 19.9162 20.1181 19.708 20.0095L13.3643 16.5095C13.2255 16.433 13.1102 16.3225 13.03 16.1891C12.9498 16.0557 12.9076 15.9042 12.9075 15.75V6.125C12.9075 5.89294 13.003 5.67038 13.1729 5.50628C13.3429 5.34219 13.5734 5.25 13.8138 5.25Z" fill="#CCCCCC"/>
</svg>
