<svg width="21" height="13" viewBox="0 0 21 13" fill="none" xmlns="http://www.w3.org/2000/svg">
<path d="M20.028 1.36488C20.1677 0.900771 20.028 0.560425 19.3673 0.560425H17.1785C16.6216 0.560425 16.367 0.854859 16.2273 1.17824C16.2273 1.17824 15.1145 3.89202 13.5375 5.65164C13.0285 6.16365 12.7959 6.32534 12.5184 6.32534C12.3797 6.32534 12.1781 6.16365 12.1781 5.69955V1.36488C12.1781 0.807949 12.0174 0.560425 11.5533 0.560425H8.11391C7.76658 0.560425 7.55698 0.81793 7.55698 1.06346C7.55698 1.59045 8.34547 1.71221 8.42631 3.19736V6.41916C8.42631 7.12481 8.29955 7.25356 8.02009 7.25356C7.27852 7.25356 5.47399 4.5298 4.40304 1.41179C4.19444 0.805953 3.98385 0.561423 3.42492 0.561423H1.23713C0.611333 0.561423 0.486572 0.855857 0.486572 1.17924C0.486572 1.76012 1.22815 4.63459 3.94093 8.43629C5.74946 11.0323 8.29556 12.4396 10.6151 12.4396C12.0054 12.4396 12.1771 12.1272 12.1771 11.5882V9.626C12.1771 9.0012 12.3098 8.87544 12.75 8.87544C13.0734 8.87544 13.6303 9.03913 14.9288 10.2897C16.412 11.7729 16.6575 12.4386 17.4909 12.4386H19.6787C20.3035 12.4386 20.6159 12.1262 20.4362 11.5094C20.2396 10.8956 19.531 10.0023 18.5908 8.94531C18.0798 8.34247 17.3162 7.69371 17.0837 7.36934C16.7593 6.95114 16.8531 6.7665 17.0837 6.39521C17.0847 6.39621 19.7505 2.64143 20.028 1.36488Z" fill="white"/>
</svg>
