<svg width="86" height="40" viewBox="0 0 86 40" fill="none" xmlns="http://www.w3.org/2000/svg">
<path d="M30.8499 35.707C30.8779 35.707 30.8919 35.735 30.8919 35.791C30.8919 35.847 30.8779 35.875 30.8499 35.875C30.6352 35.875 30.4672 35.8703 30.3459 35.861L29.6039 35.847L28.8759 35.861C28.7452 35.8703 28.5725 35.875 28.3579 35.875C28.3392 35.875 28.3299 35.847 28.3299 35.791C28.3299 35.735 28.3392 35.707 28.3579 35.707C28.6285 35.707 28.8245 35.6837 28.9459 35.637C29.0765 35.5903 29.1652 35.5017 29.2119 35.371C29.2585 35.231 29.2819 35.021 29.2819 34.741V32.459C29.2819 31.8897 29.1792 31.4697 28.9739 31.199C28.7779 30.9283 28.4652 30.793 28.0359 30.793C27.7465 30.793 27.4479 30.8817 27.1399 31.059C26.8412 31.227 26.5659 31.465 26.3139 31.773C26.3232 31.8197 26.3279 31.9037 26.3279 32.025V34.741C26.3279 35.021 26.3512 35.231 26.3979 35.371C26.4445 35.5017 26.5285 35.5903 26.6499 35.637C26.7805 35.6837 26.9812 35.707 27.2519 35.707C27.2705 35.707 27.2799 35.735 27.2799 35.791C27.2799 35.847 27.2705 35.875 27.2519 35.875C27.0372 35.875 26.8645 35.8703 26.7339 35.861L26.0059 35.847L25.2639 35.861C25.1425 35.8703 24.9745 35.875 24.7599 35.875C24.7319 35.875 24.7179 35.847 24.7179 35.791C24.7179 35.735 24.7319 35.707 24.7599 35.707C25.0305 35.707 25.2265 35.6837 25.3479 35.637C25.4692 35.5903 25.5532 35.5017 25.5999 35.371C25.6465 35.231 25.6699 35.021 25.6699 34.741V32.459C25.6699 31.8897 25.5672 31.4697 25.3619 31.199C25.1659 30.9283 24.8579 30.793 24.4379 30.793C24.1485 30.793 23.8545 30.877 23.5559 31.045C23.2572 31.213 22.9819 31.451 22.7299 31.759V34.741C22.7299 35.021 22.7485 35.231 22.7859 35.371C22.8325 35.5017 22.9165 35.5903 23.0379 35.637C23.1685 35.6837 23.3692 35.707 23.6399 35.707C23.6679 35.707 23.6819 35.735 23.6819 35.791C23.6819 35.847 23.6679 35.875 23.6399 35.875C23.4252 35.875 23.2572 35.8703 23.1359 35.861L22.4079 35.847L21.6659 35.861C21.5445 35.8703 21.3765 35.875 21.1619 35.875C21.1339 35.875 21.1199 35.847 21.1199 35.791C21.1199 35.735 21.1339 35.707 21.1619 35.707C21.4325 35.707 21.6285 35.6837 21.7499 35.637C21.8712 35.5903 21.9552 35.5017 22.0019 35.371C22.0485 35.231 22.0719 35.021 22.0719 34.741V31.941C22.0719 31.6143 22.0345 31.381 21.9599 31.241C21.8852 31.101 21.7545 31.031 21.5679 31.031C21.4185 31.031 21.1572 31.101 20.7839 31.241H20.7559C20.7185 31.241 20.6905 31.2223 20.6719 31.185C20.6625 31.1383 20.6765 31.1057 20.7139 31.087L22.2679 30.359C22.2865 30.3497 22.3099 30.345 22.3379 30.345C22.4125 30.345 22.4965 30.4523 22.5899 30.667C22.6832 30.8723 22.7299 31.1383 22.7299 31.465V31.521C23.0752 31.101 23.4159 30.7977 23.7519 30.611C24.0879 30.4243 24.4379 30.331 24.8019 30.331C25.2219 30.331 25.5579 30.4383 25.8099 30.653C26.0712 30.8583 26.2345 31.1663 26.2999 31.577C26.6545 31.1383 27.0045 30.821 27.3499 30.625C27.6952 30.429 28.0499 30.331 28.4139 30.331C28.9085 30.331 29.2865 30.471 29.5479 30.751C29.8092 31.031 29.9399 31.4557 29.9399 32.025V34.741C29.9399 35.021 29.9585 35.231 29.9959 35.371C30.0425 35.5017 30.1265 35.5903 30.2479 35.637C30.3785 35.6837 30.5792 35.707 30.8499 35.707ZM37.9306 35.105C37.9679 35.105 37.9912 35.1283 38.0006 35.175C38.0192 35.2123 38.0099 35.2403 37.9726 35.259L36.4046 35.987L36.3486 36.001C36.2646 36.001 36.1759 35.8983 36.0826 35.693C35.9986 35.4783 35.9566 35.2077 35.9566 34.881V34.755C35.5739 35.1843 35.1959 35.497 34.8226 35.693C34.4492 35.8797 34.0666 35.973 33.6746 35.973C33.2172 35.973 32.8579 35.8283 32.5966 35.539C32.3446 35.2497 32.2186 34.825 32.2186 34.265V32.095C32.2186 31.7123 32.1859 31.4417 32.1206 31.283C32.0646 31.115 31.9619 31.031 31.8126 31.031C31.6726 31.031 31.5046 31.0777 31.3086 31.171H31.2806C31.2432 31.171 31.2152 31.1477 31.1966 31.101C31.1872 31.0543 31.2012 31.0263 31.2386 31.017L32.7086 30.359L32.7646 30.345C32.7832 30.345 32.8066 30.3543 32.8346 30.373C32.8626 30.3917 32.8766 30.415 32.8766 30.443V33.845C32.8766 34.405 32.9746 34.8203 33.1706 35.091C33.3666 35.3617 33.6606 35.497 34.0526 35.497C34.3792 35.497 34.7106 35.413 35.0466 35.245C35.3826 35.0677 35.6859 34.825 35.9566 34.517V32.095C35.9566 31.7123 35.9239 31.4417 35.8586 31.283C35.8026 31.115 35.6952 31.031 35.5366 31.031C35.3966 31.031 35.2286 31.0777 35.0326 31.171H35.0046C34.9672 31.171 34.9439 31.1477 34.9346 31.101C34.9252 31.0543 34.9392 31.0263 34.9766 31.017L36.4466 30.359L36.4886 30.345C36.5166 30.345 36.5399 30.3543 36.5586 30.373C36.5866 30.3917 36.6006 30.415 36.6006 30.443V34.405C36.6006 34.7223 36.6379 34.9557 36.7126 35.105C36.7966 35.245 36.9319 35.315 37.1186 35.315C37.2119 35.315 37.3239 35.2963 37.4546 35.259C37.5946 35.2123 37.7439 35.161 37.9026 35.105H37.9306ZM39.3619 31.367C39.3619 31.7123 39.4692 31.983 39.6839 32.179C39.8985 32.3657 40.2252 32.5663 40.6639 32.781C40.9812 32.9397 41.2332 33.0797 41.4199 33.201C41.6065 33.3223 41.7652 33.481 41.8959 33.677C42.0265 33.8637 42.0919 34.0923 42.0919 34.363C42.0919 34.8297 41.9145 35.2263 41.5599 35.553C41.2145 35.8703 40.7385 36.029 40.1319 36.029C39.6372 36.029 39.1985 35.8843 38.8159 35.595C38.7599 35.5577 38.7319 35.5017 38.7319 35.427L38.7039 34.419C38.7039 34.391 38.7272 34.377 38.7739 34.377C38.8299 34.3677 38.8625 34.377 38.8719 34.405C39.0492 34.8717 39.2732 35.217 39.5439 35.441C39.8239 35.6557 40.1552 35.763 40.5379 35.763C40.8552 35.763 41.0979 35.693 41.2659 35.553C41.4339 35.413 41.5179 35.2077 41.5179 34.937C41.5179 34.6663 41.4572 34.4423 41.3359 34.265C41.2239 34.0783 41.0792 33.929 40.9019 33.817C40.7339 33.705 40.5005 33.579 40.2019 33.439C39.8939 33.2897 39.6465 33.159 39.4599 33.047C39.2825 32.9257 39.1285 32.767 38.9979 32.571C38.8765 32.375 38.8159 32.1323 38.8159 31.843C38.8159 31.3483 39.0025 30.9657 39.3759 30.695C39.7492 30.4243 40.1879 30.289 40.6919 30.289C41.0372 30.289 41.3685 30.359 41.6859 30.499C41.7419 30.527 41.7745 30.5503 41.7839 30.569C41.8025 30.5877 41.8119 30.6157 41.8119 30.653C41.8119 30.8303 41.8072 30.9703 41.7979 31.073L41.7839 31.619C41.7839 31.6377 41.7559 31.647 41.6999 31.647C41.6439 31.647 41.6159 31.6377 41.6159 31.619C41.6159 31.3203 41.4619 31.073 41.1539 30.877C40.8459 30.6717 40.5192 30.569 40.1739 30.569C39.9219 30.569 39.7212 30.639 39.5719 30.779C39.4319 30.9097 39.3619 31.1057 39.3619 31.367ZM47.7603 35.119C47.7883 35.119 47.8117 35.1377 47.8303 35.175C47.8583 35.203 47.863 35.231 47.8443 35.259C47.2283 35.7817 46.561 36.043 45.8423 36.043C45.301 36.043 44.8343 35.917 44.4423 35.665C44.0503 35.413 43.7563 35.0863 43.5603 34.685C43.3643 34.2743 43.2663 33.831 43.2663 33.355C43.2663 32.795 43.397 32.2863 43.6583 31.829C43.9197 31.3717 44.2743 31.0123 44.7223 30.751C45.1797 30.4803 45.6837 30.345 46.2343 30.345C46.7197 30.345 47.0977 30.471 47.3683 30.723C47.639 30.9657 47.7743 31.3017 47.7743 31.731C47.7743 31.843 47.7603 31.9223 47.7323 31.969C47.7137 32.0157 47.6717 32.039 47.6063 32.039L44.1343 32.053C44.0877 32.3143 44.0643 32.571 44.0643 32.823C44.0643 33.6443 44.2603 34.3117 44.6523 34.825C45.0537 35.3383 45.5997 35.595 46.2903 35.595C46.841 35.595 47.3263 35.4363 47.7463 35.119H47.7603ZM45.7583 30.625C45.3477 30.625 45.007 30.737 44.7363 30.961C44.475 31.1757 44.2883 31.4883 44.1763 31.899L46.9343 31.829C46.9343 31.4463 46.827 31.1523 46.6123 30.947C46.3977 30.7323 46.113 30.625 45.7583 30.625ZM55.1982 35.105C55.2355 35.105 55.2588 35.1283 55.2681 35.175C55.2868 35.2123 55.2775 35.2403 55.2401 35.259L53.6722 35.987L53.6161 36.001C53.5321 36.001 53.4435 35.8983 53.3502 35.693C53.2662 35.4783 53.2242 35.2077 53.2242 34.881V34.755C52.8415 35.1843 52.4635 35.497 52.0901 35.693C51.7168 35.8797 51.3341 35.973 50.9421 35.973C50.4848 35.973 50.1255 35.8283 49.8641 35.539C49.6121 35.2497 49.4861 34.825 49.4861 34.265V32.095C49.4861 31.7123 49.4535 31.4417 49.3881 31.283C49.3321 31.115 49.2295 31.031 49.0801 31.031C48.9401 31.031 48.7721 31.0777 48.5761 31.171H48.5481C48.5108 31.171 48.4828 31.1477 48.4641 31.101C48.4548 31.0543 48.4688 31.0263 48.5061 31.017L49.9761 30.359L50.0321 30.345C50.0508 30.345 50.0741 30.3543 50.1021 30.373C50.1301 30.3917 50.1441 30.415 50.1441 30.443V33.845C50.1441 34.405 50.2421 34.8203 50.4381 35.091C50.6341 35.3617 50.9281 35.497 51.3201 35.497C51.6468 35.497 51.9781 35.413 52.3142 35.245C52.6501 35.0677 52.9535 34.825 53.2242 34.517V32.095C53.2242 31.7123 53.1915 31.4417 53.1262 31.283C53.0701 31.115 52.9628 31.031 52.8041 31.031C52.6641 31.031 52.4961 31.0777 52.3001 31.171H52.2721C52.2348 31.171 52.2115 31.1477 52.2021 31.101C52.1928 31.0543 52.2068 31.0263 52.2441 31.017L53.7141 30.359L53.7561 30.345C53.7841 30.345 53.8075 30.3543 53.8261 30.373C53.8541 30.3917 53.8682 30.415 53.8682 30.443V34.405C53.8682 34.7223 53.9055 34.9557 53.9801 35.105C54.0641 35.245 54.1995 35.315 54.3862 35.315C54.4795 35.315 54.5915 35.2963 54.7221 35.259C54.8622 35.2123 55.0115 35.161 55.1701 35.105H55.1982ZM65.6174 35.707C65.6454 35.707 65.6594 35.735 65.6594 35.791C65.6594 35.847 65.6454 35.875 65.6174 35.875C65.4028 35.875 65.2348 35.8703 65.1134 35.861L64.3714 35.847L63.6434 35.861C63.5128 35.8703 63.3401 35.875 63.1254 35.875C63.1068 35.875 63.0974 35.847 63.0974 35.791C63.0974 35.735 63.1068 35.707 63.1254 35.707C63.3961 35.707 63.5921 35.6837 63.7134 35.637C63.8441 35.5903 63.9328 35.5017 63.9794 35.371C64.0261 35.231 64.0494 35.021 64.0494 34.741V32.459C64.0494 31.8897 63.9468 31.4697 63.7414 31.199C63.5454 30.9283 63.2328 30.793 62.8034 30.793C62.5141 30.793 62.2154 30.8817 61.9074 31.059C61.6088 31.227 61.3334 31.465 61.0814 31.773C61.0908 31.8197 61.0954 31.9037 61.0954 32.025V34.741C61.0954 35.021 61.1188 35.231 61.1654 35.371C61.2121 35.5017 61.2961 35.5903 61.4174 35.637C61.5481 35.6837 61.7488 35.707 62.0194 35.707C62.0381 35.707 62.0474 35.735 62.0474 35.791C62.0474 35.847 62.0381 35.875 62.0194 35.875C61.8048 35.875 61.6321 35.8703 61.5014 35.861L60.7734 35.847L60.0314 35.861C59.9101 35.8703 59.7421 35.875 59.5274 35.875C59.4994 35.875 59.4854 35.847 59.4854 35.791C59.4854 35.735 59.4994 35.707 59.5274 35.707C59.7981 35.707 59.9941 35.6837 60.1154 35.637C60.2368 35.5903 60.3208 35.5017 60.3674 35.371C60.4141 35.231 60.4374 35.021 60.4374 34.741V32.459C60.4374 31.8897 60.3348 31.4697 60.1294 31.199C59.9334 30.9283 59.6254 30.793 59.2054 30.793C58.9161 30.793 58.6221 30.877 58.3234 31.045C58.0248 31.213 57.7494 31.451 57.4974 31.759V34.741C57.4974 35.021 57.5161 35.231 57.5534 35.371C57.6001 35.5017 57.6841 35.5903 57.8054 35.637C57.9361 35.6837 58.1368 35.707 58.4074 35.707C58.4354 35.707 58.4494 35.735 58.4494 35.791C58.4494 35.847 58.4354 35.875 58.4074 35.875C58.1928 35.875 58.0248 35.8703 57.9034 35.861L57.1754 35.847L56.4334 35.861C56.3121 35.8703 56.1441 35.875 55.9294 35.875C55.9014 35.875 55.8874 35.847 55.8874 35.791C55.8874 35.735 55.9014 35.707 55.9294 35.707C56.2001 35.707 56.3961 35.6837 56.5174 35.637C56.6388 35.5903 56.7228 35.5017 56.7694 35.371C56.8161 35.231 56.8394 35.021 56.8394 34.741V31.941C56.8394 31.6143 56.8021 31.381 56.7274 31.241C56.6528 31.101 56.5221 31.031 56.3354 31.031C56.1861 31.031 55.9248 31.101 55.5514 31.241H55.5234C55.4861 31.241 55.4581 31.2223 55.4394 31.185C55.4301 31.1383 55.4441 31.1057 55.4814 31.087L57.0354 30.359C57.0541 30.3497 57.0774 30.345 57.1054 30.345C57.1801 30.345 57.2641 30.4523 57.3574 30.667C57.4508 30.8723 57.4974 31.1383 57.4974 31.465V31.521C57.8428 31.101 58.1834 30.7977 58.5194 30.611C58.8554 30.4243 59.2054 30.331 59.5694 30.331C59.9894 30.331 60.3254 30.4383 60.5774 30.653C60.8388 30.8583 61.0021 31.1663 61.0674 31.577C61.4221 31.1383 61.7721 30.821 62.1174 30.625C62.4628 30.429 62.8174 30.331 63.1814 30.331C63.6761 30.331 64.0541 30.471 64.3154 30.751C64.5768 31.031 64.7074 31.4557 64.7074 32.025V34.741C64.7074 35.021 64.7261 35.231 64.7634 35.371C64.8101 35.5017 64.8941 35.5903 65.0154 35.637C65.1461 35.6837 65.3468 35.707 65.6174 35.707Z" fill="white"/>
<line x1="19.595" y1="23.875" x2="66.845" y2="23.875" stroke="white"/>
<path d="M21.4052 5.625C21.4452 5.625 21.4652 5.665 21.4652 5.745C21.4652 5.825 21.4452 5.865 21.4052 5.865C20.9518 5.865 20.5718 5.965 20.2652 6.165C19.9718 6.35167 19.7118 6.71167 19.4852 7.245L15.0852 18.105C15.0718 18.1583 14.9985 18.185 14.8652 18.185C14.7585 18.185 14.6852 18.1583 14.6452 18.105L9.70516 7.285C9.47849 6.765 9.23182 6.39833 8.96516 6.185C8.71182 5.97167 8.37849 5.865 7.96516 5.865C7.92516 5.865 7.90516 5.825 7.90516 5.745C7.90516 5.665 7.92516 5.625 7.96516 5.625L8.82516 5.645C9.19849 5.67167 9.47849 5.685 9.66516 5.685C10.0518 5.685 10.5118 5.67167 11.0452 5.645L11.9052 5.625C11.9452 5.625 11.9652 5.665 11.9652 5.745C11.9652 5.825 11.9452 5.865 11.9052 5.865C11.4918 5.865 11.1785 5.91167 10.9652 6.005C10.7652 6.09833 10.6652 6.25833 10.6652 6.485C10.6652 6.645 10.7252 6.845 10.8452 7.085L15.2052 16.705L19.0652 7.125C19.1585 6.89833 19.2052 6.705 19.2052 6.545C19.2052 6.305 19.0785 6.13167 18.8252 6.025C18.5852 5.91833 18.1852 5.865 17.6252 5.865C17.5852 5.865 17.5652 5.825 17.5652 5.745C17.5652 5.665 17.5852 5.625 17.6252 5.625L18.4252 5.645C18.8785 5.67167 19.2785 5.685 19.6252 5.685C19.9052 5.685 20.2185 5.67167 20.5652 5.645L21.4052 5.625ZM25.185 16.505C25.185 16.9183 25.225 17.2183 25.305 17.405C25.3983 17.5917 25.565 17.7183 25.805 17.785C26.045 17.8517 26.4317 17.885 26.965 17.885C26.9917 17.885 27.005 17.925 27.005 18.005C27.005 18.085 26.9917 18.125 26.965 18.125C26.565 18.125 26.2517 18.1183 26.025 18.105L24.625 18.085L23.285 18.105C23.045 18.1183 22.7183 18.125 22.305 18.125C22.265 18.125 22.245 18.085 22.245 18.005C22.245 17.925 22.265 17.885 22.305 17.885C22.825 17.885 23.205 17.8517 23.445 17.785C23.6983 17.7183 23.8717 17.5917 23.965 17.405C24.0583 17.205 24.105 16.905 24.105 16.505V7.245C24.105 6.845 24.0583 6.55167 23.965 6.365C23.8717 6.17833 23.6983 6.05167 23.445 5.985C23.205 5.905 22.825 5.865 22.305 5.865C22.265 5.865 22.245 5.825 22.245 5.745C22.245 5.665 22.265 5.625 22.305 5.625L23.285 5.645C23.845 5.67167 24.2917 5.685 24.625 5.685C24.9983 5.685 25.465 5.67167 26.025 5.645L26.965 5.625C26.9917 5.625 27.005 5.665 27.005 5.745C27.005 5.825 26.9917 5.865 26.965 5.865C26.445 5.865 26.0583 5.905 25.805 5.985C25.565 6.065 25.3983 6.205 25.305 6.405C25.225 6.59167 25.185 6.885 25.185 7.285V16.505ZM35.2666 18.365C34.0266 18.365 32.9199 18.0783 31.9466 17.505C30.9866 16.9183 30.2399 16.1317 29.7066 15.145C29.1866 14.145 28.9266 13.0583 28.9266 11.885C28.9266 10.5117 29.2732 9.33833 29.9666 8.365C30.6599 7.37833 31.5466 6.63833 32.6266 6.145C33.7199 5.65167 34.8332 5.405 35.9666 5.405C37.2332 5.405 38.3466 5.705 39.3066 6.305C40.2666 6.89167 40.9999 7.67167 41.5066 8.645C42.0266 9.61833 42.2866 10.6517 42.2866 11.745C42.2866 12.9583 41.9666 14.0717 41.3266 15.085C40.6866 16.0983 39.8266 16.8983 38.7466 17.485C37.6799 18.0717 36.5199 18.365 35.2666 18.365ZM35.9866 17.965C36.9332 17.965 37.7866 17.745 38.5466 17.305C39.3066 16.865 39.9066 16.2183 40.3466 15.365C40.7866 14.5117 41.0066 13.4917 41.0066 12.305C41.0066 11.0517 40.7599 9.93833 40.2666 8.965C39.7866 7.97833 39.0999 7.21167 38.2066 6.665C37.3266 6.11833 36.2999 5.845 35.1266 5.845C33.5799 5.845 32.3732 6.325 31.5066 7.285C30.6399 8.245 30.2066 9.55167 30.2066 11.205C30.2066 12.445 30.4466 13.585 30.9266 14.625C31.4199 15.6517 32.1066 16.465 32.9866 17.065C33.8666 17.665 34.8666 17.965 35.9866 17.965ZM46.8191 16.425C46.8191 16.8117 46.8591 17.0983 46.9391 17.285C47.0324 17.4583 47.1924 17.5783 47.4191 17.645C47.6591 17.7117 48.0324 17.745 48.5391 17.745H51.0991C52.4191 17.745 53.1991 16.8983 53.4391 15.205C53.4391 15.165 53.4724 15.1517 53.5391 15.165C53.6191 15.165 53.6591 15.185 53.6591 15.225C53.5391 16.2783 53.4791 17.145 53.4791 17.825C53.4791 17.9317 53.4591 18.0117 53.4191 18.065C53.3791 18.105 53.2991 18.125 53.1791 18.125H43.9791C43.9524 18.125 43.9391 18.085 43.9391 18.005C43.9391 17.925 43.9524 17.885 43.9791 17.885C44.4991 17.885 44.8791 17.8517 45.1191 17.785C45.3724 17.7183 45.5391 17.5917 45.6191 17.405C45.7124 17.205 45.7591 16.905 45.7591 16.505V7.245C45.7591 6.845 45.7124 6.55167 45.6191 6.365C45.5391 6.17833 45.3724 6.05167 45.1191 5.985C44.8791 5.905 44.4991 5.865 43.9791 5.865C43.9524 5.865 43.9391 5.825 43.9391 5.745C43.9391 5.665 43.9524 5.625 43.9791 5.625L44.9591 5.645C45.5191 5.67167 45.9591 5.685 46.2791 5.685C46.6391 5.685 47.0991 5.67167 47.6591 5.645L48.5991 5.625C48.6257 5.625 48.6391 5.665 48.6391 5.745C48.6391 5.825 48.6257 5.865 48.5991 5.865C48.0791 5.865 47.6924 5.905 47.4391 5.985C47.1991 6.05167 47.0324 6.185 46.9391 6.385C46.8591 6.57167 46.8191 6.865 46.8191 7.265V16.425ZM57.4245 16.425C57.4245 16.8117 57.4645 17.0983 57.5445 17.285C57.6379 17.4583 57.7979 17.5783 58.0245 17.645C58.2645 17.7117 58.6379 17.745 59.1445 17.745H61.7045C63.0245 17.745 63.8045 16.8983 64.0445 15.205C64.0445 15.165 64.0779 15.1517 64.1445 15.165C64.2245 15.165 64.2645 15.185 64.2645 15.225C64.1445 16.2783 64.0845 17.145 64.0845 17.825C64.0845 17.9317 64.0645 18.0117 64.0245 18.065C63.9845 18.105 63.9045 18.125 63.7845 18.125H54.5845C54.5579 18.125 54.5445 18.085 54.5445 18.005C54.5445 17.925 54.5579 17.885 54.5845 17.885C55.1045 17.885 55.4845 17.8517 55.7245 17.785C55.9779 17.7183 56.1445 17.5917 56.2245 17.405C56.3179 17.205 56.3645 16.905 56.3645 16.505V7.245C56.3645 6.845 56.3179 6.55167 56.2245 6.365C56.1445 6.17833 55.9779 6.05167 55.7245 5.985C55.4845 5.905 55.1045 5.865 54.5845 5.865C54.5579 5.865 54.5445 5.825 54.5445 5.745C54.5445 5.665 54.5579 5.625 54.5845 5.625L55.5645 5.645C56.1245 5.67167 56.5645 5.685 56.8845 5.685C57.2445 5.685 57.7045 5.67167 58.2645 5.645L59.2045 5.625C59.2312 5.625 59.2445 5.665 59.2445 5.745C59.2445 5.825 59.2312 5.865 59.2045 5.865C58.6845 5.865 58.2979 5.905 58.0445 5.985C57.8045 6.05167 57.6379 6.185 57.5445 6.385C57.4645 6.57167 57.4245 6.865 57.4245 7.265V16.425ZM78.35 17.885C78.4033 17.885 78.43 17.925 78.43 18.005C78.43 18.085 78.4033 18.125 78.35 18.125C78.11 18.125 77.7233 18.1117 77.19 18.085C76.6833 18.0583 76.31 18.045 76.07 18.045C75.79 18.045 75.4233 18.0583 74.97 18.085C74.5433 18.1117 74.2233 18.125 74.01 18.125C73.9567 18.125 73.93 18.085 73.93 18.005C73.93 17.925 73.9567 17.885 74.01 17.885C74.5567 17.885 74.95 17.8383 75.19 17.745C75.43 17.6383 75.55 17.465 75.55 17.225C75.55 17.0383 75.4767 16.7783 75.33 16.445L72.95 11.345H69.13L67.33 15.665C67.1433 16.1183 67.05 16.4917 67.05 16.785C67.05 17.1717 67.21 17.4517 67.53 17.625C67.85 17.7983 68.35 17.885 69.03 17.885C69.0967 17.885 69.13 17.925 69.13 18.005C69.13 18.085 69.0967 18.125 69.03 18.125C68.79 18.125 68.4433 18.1117 67.99 18.085C67.4833 18.0583 67.0433 18.045 66.67 18.045C66.3367 18.045 65.9433 18.0583 65.49 18.085C65.09 18.1117 64.7633 18.125 64.51 18.125C64.4433 18.125 64.41 18.085 64.41 18.005C64.41 17.925 64.4433 17.885 64.51 17.885C64.8833 17.885 65.1967 17.8183 65.45 17.685C65.7167 17.5517 65.9633 17.3117 66.19 16.965C66.43 16.6183 66.6833 16.125 66.95 15.485L71.13 5.425C71.1567 5.385 71.1967 5.365 71.25 5.365C71.3167 5.365 71.3567 5.385 71.37 5.425L76.01 15.385C76.3167 16.065 76.59 16.585 76.83 16.945C77.07 17.2917 77.3033 17.5383 77.53 17.685C77.77 17.8183 78.0433 17.885 78.35 17.885ZM69.29 10.965H72.79L70.93 7.005L69.29 10.965Z" fill="white"/>
</svg>
